<svg xmlns="http://www.w3.org/2000/svg" version="1.1" xmlns:xlink="http://www.w3.org/1999/xlink" xmlns:svgjs="http://svgjs.dev/svgjs" width="1500" height="363" viewBox="0 0 1500 363"><g transform="matrix(1,0,0,1,-0.9090909090909918,-0.1553495007132426)"><svg viewBox="0 0 396 96" data-background-color="#000000" preserveAspectRatio="xMidYMid meet" height="363" width="1500" xmlns="http://www.w3.org/2000/svg" xmlns:xlink="http://www.w3.org/1999/xlink"><g id="tight-bounds" transform="matrix(1,0,0,1,0.2400000000000091,0.041084165477883516)"><svg viewBox="0 0 395.52 95.91783166904423" height="95.91783166904423" width="395.52"><g><svg viewBox="0 0 395.52 95.91783166904423" height="95.91783166904423" width="395.52"><g><svg viewBox="0 0 395.52 95.91783166904423" height="95.91783166904423" width="395.52"><g id="textblocktransform"><svg viewBox="0 0 395.52 95.91783166904423" height="95.91783166904423" width="395.52" id="textblock"><g><svg viewBox="0 0 395.52 95.91783166904423" height="95.91783166904423" width="395.52"><g transform="matrix(1,0,0,1,0,0)"><svg width="395.52" viewBox="-1.2 -36.55 210.28 51" height="95.91783166904423" data-palette-color="url(#ebda7748-7526-4c13-bd16-fd9d70a0ebfc)"></svg></g></svg></g></svg></g></svg></g></svg></g><defs></defs><mask id="ad73f4a1-d4f4-4c55-b9b6-af388265f404"><g id="SvgjsG1127"><svg viewBox="0 0 395.52 95.91783166904423" height="95.91783166904423" width="395.52"><g><svg viewBox="0 0 395.52 95.91783166904423" height="95.91783166904423" width="395.52"><g><svg viewBox="0 0 395.52 95.91783166904423" height="95.91783166904423" width="395.52"><g id="SvgjsG1126"><svg viewBox="0 0 395.52 95.91783166904423" height="95.91783166904423" width="395.52" id="SvgjsSvg1125"><g><svg viewBox="0 0 395.52 95.91783166904423" height="95.91783166904423" width="395.52"><g transform="matrix(1,0,0,1,0,0)"><svg width="395.52" viewBox="-1.2 -36.55 210.28 51" height="95.91783166904423" data-palette-color="url(#ebda7748-7526-4c13-bd16-fd9d70a0ebfc)"><path d="M5.4-35.6L5.4-35.6 12.6-35.2Q17.4-35.2 19.5-36.35L19.5-36.35Q19.8-36.55 20.03-36.55 20.25-36.55 20.25-35.85 20.25-35.15 19.4-33.55L19.4-33.55Q18.15-31.1 15.8-31.1L15.8-31.1 13.05-31.15Q12.65-31.15 12.55-30.7L12.55-30.7Q12.2-23.35 12.2-14.83 12.2-6.3 12.9-2L12.9-2 12.9-1.75Q12.9-0.5 10.53 0.25 8.15 1 6.05 1L6.05 1Q5.05 1 5.05 0.45L5.05 0.45Q5.05 0.3 5.2-0.25L5.2-0.25Q5.75-1.35 6.18-10.9 6.6-20.45 6.6-25.3L6.6-25.3 6.5-30.75Q6.5-31.05 6.2-31.1L6.2-31.1Q5.15-31.3 3.8-31.3L3.8-31.3Q1.1-31.3-0.2-30.2L-0.2-30.2Q-0.55-29.95-0.88-29.95-1.2-29.95-1.2-30.35L-1.2-30.35Q-1.2-30.95-0.58-32 0.05-33.05 0.75-33.8L0.75-33.8Q2.45-35.6 5.4-35.6ZM34.65-15L34.65-15 34.55-8.6Q34.55-1.95 36-0.6L36-0.6Q36.2-0.4 36.2-0.15L36.2-0.15Q36.2 0.6 32.97 0.6 29.75 0.6 29.55-1.3L29.55-1.3Q29.5-1.75 29.5-3.15L29.5-3.15 29.7-11.15Q29.7-11.5 29.3-11.5L29.3-11.5Q26.9-11.5 24.8-10.15 22.7-8.8 22.7-6.7L22.7-6.7Q22.7-5.6 23.3-4.85 23.9-4.1 24.77-4.1 25.65-4.1 26.22-4.45 26.8-4.8 26.9-4.85L26.9-4.85Q27.75-4.75 27.75-3.08 27.75-1.4 26.2-0.38 24.65 0.65 22.95 0.65 21.25 0.65 20.02 0.05 18.8-0.55 18.25-1.3 17.7-2.05 17.35-3L17.35-3Q17-4.15 17-5L17-5Q17-8.5 19.2-10.6 21.4-12.7 24.85-13.6L24.85-13.6Q29.4-14.5 29.6-15.25L29.6-15.25Q29.75-15.8 29.75-17.1L29.75-17.1Q29.75-19.75 27.05-19.75L27.05-19.75Q25.9-19.75 25-19.03 24.1-18.3 24.1-17.2L24.1-17.2 24.4-16Q24.3-15.15 22.6-15L22.6-15 22.05-14.95Q20.55-14.95 19.67-15.7 18.8-16.45 18.8-17.7L18.8-17.7Q18.8-18.5 19.32-19.48 19.85-20.45 20.65-21.05 21.45-21.65 23.12-22.13 24.8-22.6 26.35-22.6 27.9-22.6 28.75-22.5 29.6-22.4 31.07-22.03 32.55-21.65 33.52-20.6 34.5-19.55 34.57-18.38 34.65-17.2 34.65-15ZM52.9-6.85L52.9-6.85Q52.9-4.7 52.07-3.1 51.25-1.5 50.2-0.75 49.15 0 47.7 0.45L47.7 0.45Q45.8 1.05 44.25 1.05L44.25 1.05Q41 1.05 38.85-0.23 36.7-1.5 36.7-4.3L36.7-4.3Q36.7-5.95 37.6-7L37.6-7Q39-8.55 40.95-8.55L40.95-8.55Q41.55-8.55 41.55-8L41.55-8Q41.55-7.95 41.32-7.23 41.1-6.5 41.1-5.4 41.1-4.3 41.97-3.45 42.85-2.6 44.1-2.6 45.35-2.6 46.1-3.03 46.85-3.45 47.15-4.1L47.15-4.1Q47.6-5 47.6-5.8L47.6-5.8Q47.6-7.25 46.15-8.3 44.7-9.35 42.95-9.95 41.2-10.55 39.75-11.95 38.3-13.35 38.3-15.45L38.3-15.45Q38.3-19.05 40.57-20.85 42.85-22.65 46.75-22.65L46.75-22.65Q48.45-22.65 50.32-22.18 52.2-21.7 52.2-20.58 52.2-19.45 51.82-18.5 51.45-17.55 50.9-17.55L50.9-17.55Q50.6-17.55 50.5-17.78 50.4-18 50.15-18.3 49.9-18.6 48.95-19.07 48-19.55 47.32-19.55 46.65-19.55 46.42-19.53 46.2-19.5 45.65-19.38 45.1-19.25 44.65-19L44.65-19Q43.5-18.35 43.5-17.1L43.5-17.1Q43.5-16.3 43.85-15.93 44.2-15.55 44.4-15.35 44.6-15.15 45.1-14.88 45.6-14.6 45.8-14.5 46-14.4 46.7-14.08 47.4-13.75 47.6-13.65L47.6-13.65Q52.9-11.15 52.9-6.85ZM65.19-16.2L65.19-16.2Q64.99-16 64.99-15.78 64.99-15.55 65.92-15.35 66.84-15.15 67.94-14.25 69.04-13.35 69.59-12.3L69.59-12.3Q70.64-10.25 70.74-8.7L70.74-8.7 70.79-8.05Q71.04-2.2 72.94-0.05L72.94-0.05Q73.19 0.3 73.19 0.45L73.19 0.45Q73.19 1 71.79 1L71.79 1Q67.59 1 66.44-0.75L66.44-0.75Q65.84-1.45 65.84-5.1L65.84-5.1 65.84-6.35Q65.84-11 64.69-12.8L64.69-12.8Q64.09-13.65 63.22-13.65 62.34-13.65 61.39-12.13 60.44-10.6 60.44-9.55L60.44-9.55Q60.44-5.35 60.64-3.7 60.84-2.05 60.84-2L60.84-2Q60.84-0.55 58.87 0.25 56.89 1.05 55.14 1.05L55.14 1.05Q54.49 1.05 54.49 0.25L54.49 0.25 54.49 0.05Q55.69-6.1 55.69-19.35L55.69-19.35Q55.69-23.7 55.49-26.7L55.49-26.7 55.39-27.7Q55.29-29.1 54.82-30.1 54.34-31.1 53.89-31.4L53.89-31.4 53.49-31.65Q53.14-31.85 53.14-32.1L53.14-32.1Q53.14-32.9 55.54-33.9 57.94-34.9 59.69-34.9L59.69-34.9Q60.49-34.85 60.54-34.3L60.54-34.3Q60.79-32.3 60.79-26.08 60.79-19.85 60.49-16.15L60.49-16.15Q60.49-15.55 60.69-15.55 60.89-15.55 61.32-16.13 61.74-16.7 62.82-17.95 63.89-19.2 65.72-20.85 67.54-22.5 68.67-22.5 69.79-22.5 70.89-21.95 71.99-21.4 71.99-20.9L71.99-20.9 71.44-20.55Q68.59-19.5 65.19-16.2ZM91.59-19.1L90.84-18.95Q90.29-18.8 90.29-18.63 90.29-18.45 91.49-18 92.69-17.55 93.77-16.6 94.84-15.65 95.29-14.3L95.29-14.3Q95.99-12.25 95.99-9.9 95.99-7.55 96.34-6.03 96.69-4.5 97.19-3.7L97.19-3.7Q98.19-2 99.04-1.6L99.04-1.6 99.39-1.4Q99.69-1.2 99.69-0.9L99.69-0.9Q99.69-0.15 97.24 0.43 94.79 1 93.44 1L93.44 1Q90.79 1 90.07-1.13 89.34-3.25 89.34-8.4L89.34-8.4 89.34-11.15Q89.34-15.5 86.74-16.7L86.74-16.7Q85.74-17.15 84.34-17.15L84.34-17.15 84.29-17.15Q83.84-17.15 83.84-18.03 83.84-18.9 84.37-19.8 84.89-20.7 85.29-20.7L85.29-20.7Q86.94-20.7 88.14-21.33 89.34-21.95 89.89-22.85L89.89-22.85Q91.04-24.75 91.14-26.1L91.14-26.1 91.14-26.75Q91.14-28.6 90.54-29.88 89.94-31.15 89.04-31.65L89.04-31.65Q87.54-32.45 85.99-32.45 84.44-32.45 83.44-32.2L83.44-32.2Q82.04-31.8 82.04-31.35L82.04-31.35Q81.59-24.8 81.59-18.73 81.59-12.65 81.77-9.43 81.94-6.2 82.12-4.23 82.29-2.25 82.29-1.9L82.29-1.9Q82.29-1.25 81.94-1L81.94-1Q79.89 0.9 75.49 0.9L75.49 0.9Q74.74 0.9 74.74 0.4L74.74 0.4Q74.74 0.25 74.89-0.3L74.89-0.3Q75.39-1.45 75.62-7.6 75.84-13.75 75.84-18.82 75.84-23.9 75.64-27.05L75.64-27.05Q75.34-31.8 74.64-32.75L74.64-32.75Q74.09-33.45 74.09-33.73 74.09-34 74.64-34.3L74.64-34.3Q77.84-35.8 86.24-35.8L86.24-35.8Q92.99-35.8 96.34-32L96.34-32Q98.14-29.9 98.14-26.75L98.14-26.75Q98.14-24.85 97.39-23.35 96.64-21.85 95.54-21.05L95.54-21.05Q93.44-19.45 91.59-19.1L91.59-19.1ZM118.24-22.25L118.24-22.25Q117.34-16.85 117.34-8.5L117.34-8.5Q117.34-2.35 117.84-0.4L117.84-0.4 118.04 0.25Q118.04 0.9 116.94 0.9L116.94 0.9Q113.09 0.9 112.54-1.25L112.54-1.25Q112.49-1.5 112.31-1.5 112.14-1.5 111.99-1.3L111.99-1.3Q110.44 0.75 107.19 0.75L107.19 0.75Q105.39 0.75 103.44-0.15L103.44-0.15Q102.24-0.7 101.49-2.08 100.74-3.45 100.74-5.45L100.74-5.45 101.49-16.4Q101.49-19.85 100.79-21.3L100.79-21.3Q100.54-21.85 100.54-22L100.54-22Q100.54-22.3 100.79-22.4L100.79-22.4Q101.59-22.65 102.84-22.65L102.84-22.65Q107.69-22.65 107.69-18.65L107.69-18.65Q107.69-17.4 106.66-12.95 105.64-8.5 105.64-6.63 105.64-4.75 106.46-3.75 107.29-2.75 108.76-2.75 110.24-2.75 111.09-3.8 111.94-4.85 112.09-5.9L112.09-5.9 112.24-6.95Q112.44-8.7 112.44-13.1 112.44-17.5 112.16-18.68 111.89-19.85 111.89-20.15L111.89-20.15Q111.89-21.4 113.89-22.13 115.89-22.85 117.49-22.85L117.49-22.85Q118.24-22.85 118.24-22.25ZM120.64 0.35L120.64 0.35Q121.54-5.05 121.54-12.6 121.54-20.15 121.09-22.4L121.09-22.4Q121.09-23.05 122.59-23.05L122.59-23.05Q124.89-23.05 125.64-21.3L125.64-21.3Q125.69-21.15 125.89-21.15 126.09-21.15 126.19-21.25L126.19-21.25Q127.74-22.85 130.99-22.85 134.24-22.85 136.14-21.2 138.04-19.55 138.04-16.4L138.04-16.4Q138.04-14.5 137.71-11 137.39-7.5 137.39-5.8L137.39-5.8Q137.39-1.75 138.74 0.05L138.74 0.05Q138.94 0.3 138.94 0.55L138.94 0.55Q138.94 1.2 137.54 1.2L137.54 1.2Q131.34 1.2 131.34-4.3L131.34-4.3Q131.34-6.4 132.29-10.15 133.24-13.9 133.24-15.85L133.24-15.85Q133.24-19.85 129.94-19.85L129.94-19.85Q128.34-19.85 127.51-18.9 126.69-17.95 126.59-16.73 126.49-15.5 126.49-12.1L126.49-12.1Q126.49-6.9 126.84-3.05L126.84-3.05 126.94-1.95Q126.94-0.55 125.11 0.23 123.29 1 121.96 1 120.64 1 120.64 0.35ZM159.03 1L159.03 1Q158.53 1.35 158.28 1.35L158.28 1.35Q157.73 1.35 157.53 0.9L157.53 0.9Q156.03-2.1 155.03-7.2L155.03-7.2Q154.98-7.4 154.88-7.4L154.88-7.4 154.58-7.2Q153.23-4.8 151.46-2.75 149.68-0.7 148.58 0.15L148.58 0.15 147.48 1Q146.98 1.45 146.68 1.45L146.68 1.45Q146.13 1.45 145.93 0.95L145.93 0.95Q144.83-1.15 143.38-7.2L143.38-7.2 142.93-9.25Q141.98-13.65 141.01-16.3 140.03-18.95 139.53-19.4L139.53-19.4 139.03-19.85Q138.58-20 138.58-20.35L138.58-20.35Q138.58-21.05 140.66-21.85 142.73-22.65 143.88-22.65 145.03-22.65 145.41-21.73 145.78-20.8 146.58-16.55L146.58-16.55Q148.68-5.35 149.63-5.35L149.63-5.35Q149.93-5.35 150.31-5.88 150.68-6.4 151.21-7.15 151.73-7.9 152.63-9.75 153.53-11.6 153.53-13L153.53-13Q153.53-13.25 153.18-14.83 152.83-16.4 152.16-17.88 151.48-19.35 151.08-19.55L151.08-19.55Q150.18-20.05 150.18-20.4L150.18-20.4Q150.18-21 152.23-21.83 154.28-22.65 155.93-22.65L155.93-22.65Q156.68-22.65 156.98-21.75L156.98-21.75Q157.73-19.4 158.78-13.3L158.78-13.3Q160.13-5.5 161.28-5.5L161.28-5.5Q161.68-5.5 162.48-6.63 163.28-7.75 164.06-9.9 164.83-12.05 164.83-13.58 164.83-15.1 164.71-15.93 164.58-16.75 163.83-17.85 163.08-18.95 162.13-19.13 161.18-19.3 161.18-19.75L161.18-19.75Q161.18-20.45 163.26-21.55 165.33-22.65 167.53-22.65L167.53-22.65Q169.63-22.65 169.63-18.45L169.63-18.45Q169.63-13.2 166.53-7.65 163.43-2.1 159.03 1ZM187.38-15L187.38-15 187.28-8.6Q187.28-1.95 188.73-0.6L188.73-0.6Q188.93-0.4 188.93-0.15L188.93-0.15Q188.93 0.6 185.71 0.6 182.48 0.6 182.28-1.3L182.28-1.3Q182.23-1.75 182.23-3.15L182.23-3.15 182.43-11.15Q182.43-11.5 182.03-11.5L182.03-11.5Q179.63-11.5 177.53-10.15 175.43-8.8 175.43-6.7L175.43-6.7Q175.43-5.6 176.03-4.85 176.63-4.1 177.51-4.1 178.38-4.1 178.96-4.45 179.53-4.8 179.63-4.85L179.63-4.85Q180.48-4.75 180.48-3.08 180.48-1.4 178.93-0.38 177.38 0.65 175.68 0.65 173.98 0.65 172.76 0.05 171.53-0.55 170.98-1.3 170.43-2.05 170.08-3L170.08-3Q169.73-4.15 169.73-5L169.73-5Q169.73-8.5 171.93-10.6 174.13-12.7 177.58-13.6L177.58-13.6Q182.13-14.5 182.33-15.25L182.33-15.25Q182.48-15.8 182.48-17.1L182.48-17.1Q182.48-19.75 179.78-19.75L179.78-19.75Q178.63-19.75 177.73-19.03 176.83-18.3 176.83-17.2L176.83-17.2 177.13-16Q177.03-15.15 175.33-15L175.33-15 174.78-14.95Q173.28-14.95 172.41-15.7 171.53-16.45 171.53-17.7L171.53-17.7Q171.53-18.5 172.06-19.48 172.58-20.45 173.38-21.05 174.18-21.65 175.86-22.13 177.53-22.6 179.08-22.6 180.63-22.6 181.48-22.5 182.33-22.4 183.81-22.03 185.28-21.65 186.26-20.6 187.23-19.55 187.31-18.38 187.38-17.2 187.38-15ZM199.28 13.85L199.28 13.85Q199.28 14.45 198.68 14.45L198.68 14.45 198.63 14.45Q196.98 14.45 194.9 13.3 192.83 12.15 192.83 10.65 192.83 9.15 194.73 5.43 196.63 1.7 196.63 0.45L196.63 0.45Q196.63-0.9 195.33-4.4L195.33-4.4Q193.68-8.95 192.7-11.8 191.73-14.65 190.6-16.82 189.48-19 188.98-19.4L188.98-19.4 188.48-19.75Q187.93-20.05 187.93-20.4L187.93-20.4Q187.93-21.1 190.1-21.83 192.28-22.55 193.93-22.55L193.93-22.55Q194.68-22.55 195.18-21.35L195.18-21.35Q196.08-19 197.13-14.85L197.13-14.85Q199.68-6.35 200.33-6.35L200.33-6.35Q200.78-6.35 202.15-9.85 203.53-13.35 203.53-15.5L203.53-15.5Q203.53-19.25 201.33-19.9L201.33-19.9Q200.83-20 200.83-20.4L200.83-20.4Q200.83-21.3 203.18-22.13 205.53-22.95 207.43-22.95L207.43-22.95Q209.08-22.95 209.08-20.8L209.08-20.8Q209.08-19.15 208.38-16.95 207.68-14.75 207.08-13.48 206.48-12.2 204.1-7.58 201.73-2.95 200.18 0.55L200.18 0.55Q198.48 4.75 198.48 9.1L198.48 9.1Q198.48 11.4 198.88 12.55 199.28 13.7 199.28 13.85Z" opacity="1" transform="matrix(1,0,0,1,0,0)" fill="white" class="wordmark-text-0" id="SvgjsPath1124"></path></svg></g></svg></g></svg></g></svg></g></svg></g><defs><mask></mask></defs></svg><rect width="395.52" height="95.91783166904423" fill="black" stroke="none" visibility="hidden"></rect></g></mask><linearGradient x1="0" x2="1" y1="0.548" y2="0.55" id="ebda7748-7526-4c13-bd16-fd9d70a0ebfc"><stop stop-color="#ff6cab" offset="0"></stop><stop stop-color="#7366ff" offset="1"></stop></linearGradient><rect width="395.52" height="95.91783166904423" fill="url(#ebda7748-7526-4c13-bd16-fd9d70a0ebfc)" mask="url(#ad73f4a1-d4f4-4c55-b9b6-af388265f404)" data-fill-palette-color="primary"></rect></svg><rect width="395.52" height="95.91783166904423" fill="none" stroke="none" visibility="hidden"></rect></g></svg></g></svg>